<svg xmlns="http://www.w3.org/2000/svg" xmlns:xlink="http://www.w3.org/1999/xlink" width="500" zoomAndPan="magnify" viewBox="0 0 375 374.999991" height="500" preserveAspectRatio="xMidYMid meet" version="1.0"><defs><g/></defs><rect x="-37.5" width="450" fill="#ffffff" y="-37.499999" height="449.999989" fill-opacity="1"/><rect x="-37.5" width="450" fill="#000000" y="-37.499999" height="449.999989" fill-opacity="1"/><g fill="#ffffff" fill-opacity="1"><g transform="translate(138.831675, 214.499986)"><g><path d="M 35.171875 -0.671875 C 35.242188 -0.523438 35.222656 -0.375 35.109375 -0.21875 C 34.992188 -0.0703125 34.84375 0 34.65625 0 L 26.9375 0 C 26.675781 0 26.507812 -0.113281 26.4375 -0.34375 L 17.578125 -25.3125 L 8.84375 -0.34375 C 8.8125 -0.113281 8.625 0 8.28125 0 L 0.609375 0 C 0.347656 0 0.171875 -0.0703125 0.078125 -0.21875 C -0.015625 -0.375 -0.0195312 -0.523438 0.0625 -0.671875 L 17.03125 -44.46875 C 17.101562 -44.6875 17.285156 -44.796875 17.578125 -44.796875 C 17.878906 -44.796875 18.066406 -44.6875 18.140625 -44.46875 Z M 35.171875 -0.671875 "/></g></g></g><g fill="#ffffff" fill-opacity="1"><g transform="translate(175.786511, 214.499986)"><g><path d="M 30.578125 -0.734375 C 30.648438 -0.546875 30.640625 -0.375 30.546875 -0.21875 C 30.453125 -0.0703125 30.296875 0 30.078125 0 L 22.0625 0 C 21.757812 0 21.570312 -0.113281 21.5 -0.34375 L 13.328125 -18.09375 L 8.515625 -18.09375 L 8.515625 -0.5 C 8.515625 -0.164062 8.304688 0 7.890625 0 L 0.5625 0 C 0.1875 0 0 -0.164062 0 -0.5 L 0 -26.3125 L 15.0625 -26.3125 C 15.507812 -26.3125 16.101562 -26.347656 16.84375 -26.421875 C 17.59375 -26.503906 18.332031 -26.710938 19.0625 -27.046875 C 19.789062 -27.378906 20.40625 -27.890625 20.90625 -28.578125 C 21.414062 -29.273438 21.671875 -30.238281 21.671875 -31.46875 C 21.671875 -32.695312 21.398438 -33.664062 20.859375 -34.375 C 20.316406 -35.09375 19.65625 -35.609375 18.875 -35.921875 C 18.09375 -36.242188 17.34375 -36.453125 16.625 -36.546875 C 15.914062 -36.640625 15.394531 -36.6875 15.0625 -36.6875 L 0 -36.6875 L 0 -44.296875 C 0 -44.628906 0.1875 -44.796875 0.5625 -44.796875 L 15.0625 -44.796875 C 15.582031 -44.796875 16.421875 -44.75 17.578125 -44.65625 C 18.734375 -44.5625 20.03125 -44.304688 21.46875 -43.890625 C 22.90625 -43.484375 24.285156 -42.8125 25.609375 -41.875 C 26.941406 -40.945312 28.035156 -39.644531 28.890625 -37.96875 C 29.753906 -36.289062 30.1875 -34.125 30.1875 -31.46875 C 30.1875 -29.195312 29.8125 -27.265625 29.0625 -25.671875 C 28.3125 -24.085938 27.3125 -22.789062 26.0625 -21.78125 C 24.8125 -20.769531 23.441406 -19.988281 21.953125 -19.4375 C 23.367188 -16.257812 24.8125 -13.117188 26.28125 -10.015625 C 27.757812 -6.921875 29.191406 -3.828125 30.578125 -0.734375 Z M 30.578125 -0.734375 "/></g></g></g><g fill="#ffffff" fill-opacity="1"><g transform="translate(207.982012, 214.499986)"><g><path d="M 26.203125 -8.28125 C 26.617188 -8.28125 26.828125 -8.113281 26.828125 -7.78125 L 26.828125 -0.5 C 26.828125 -0.164062 26.601562 0 26.15625 0 L 0.734375 0 C 0.128906 0 -0.078125 -0.242188 0.109375 -0.734375 L 3.1875 -8.28125 Z M 0.609375 -36.453125 C 0.203125 -36.453125 0 -36.640625 0 -37.015625 L 0 -44.296875 C 0 -44.628906 0.203125 -44.796875 0.609375 -44.796875 L 26.09375 -44.796875 C 26.613281 -44.796875 26.820312 -44.554688 26.71875 -44.078125 L 15.796875 -16.859375 L 6.609375 -16.859375 L 14.453125 -36.453125 Z M 0.609375 -36.453125 "/></g></g></g></svg>